<?xml version="1.0" encoding="UTF-8" standalone="no"?>
<!-- Created with Inkscape (http://www.inkscape.org/) -->

<svg
   width="132.30688mm"
   height="124.65701mm"
   viewBox="0 0 132.30688 124.65701"
   version="1.1"
   id="svg2034"
   inkscape:version="1.1.2 (0a00cf5339, 2022-02-04)"
   sodipodi:docname="gardening.svg"
   xmlns:inkscape="http://www.inkscape.org/namespaces/inkscape"
   xmlns:sodipodi="http://sodipodi.sourceforge.net/DTD/sodipodi-0.dtd"
   xmlns="http://www.w3.org/2000/svg"
   xmlns:svg="http://www.w3.org/2000/svg">
  <sodipodi:namedview
     id="namedview2036"
     pagecolor="#ffffff"
     bordercolor="#666666"
     borderopacity="1.0"
     inkscape:pageshadow="2"
     inkscape:pageopacity="0.0"
     inkscape:pagecheckerboard="0"
     inkscape:document-units="mm"
     showgrid="false"
     fit-margin-top="0"
     fit-margin-left="0"
     fit-margin-right="0"
     fit-margin-bottom="0"
     inkscape:zoom="0.52916667"
     inkscape:cx="29.291339"
     inkscape:cy="351.49606"
     inkscape:window-width="1920"
     inkscape:window-height="1031"
     inkscape:window-x="0"
     inkscape:window-y="25"
     inkscape:window-maximized="1"
     inkscape:current-layer="layer1" />
  <defs
     id="defs2031" />
  <g
     inkscape:label="Calque 1"
     inkscape:groupmode="layer"
     id="layer1"
     transform="translate(-36.799838,-55.584445)">
    <g
       id="g10000"
       transform="matrix(3.6131996,0,0,3.6131996,-1349.9823,-2805.0013)"
       style="display:inline">
      <path
         d="m 401.02,791.746 c 3.27,-0.418 6.24,2.355 5.063,6.219 -1.582,5.189 -10.287,3.5 -9.111,-2.748 0.331,-1.76 1.565,-3.153 4.048,-3.471 z"
         id="path9968"
         inkscape:connector-curvature="0"
         style="clip-rule:evenodd;fill-rule:evenodd" />
      <path
         d="m 410.275,820.814 c 3.032,0.605 7.247,-0.994 9.256,0.434 1.361,0.967 1.176,3.947 -0.578,4.627 -1.655,0.645 -4.281,0.145 -6.797,0.145 -4.726,0 -9.061,0.721 -8.533,-4.049 0.43,-3.881 3.803,-5.238 5.785,-7.809 -0.232,-1.311 -0.781,-2.305 -1.157,-3.471 1.4,-1.861 3.435,-10.041 -0.434,-9.979 -2.667,0.043 -1.666,2.854 -2.169,5.061 -1.958,-2.074 -1.375,-6 1.446,-6.361 1.54,-0.199 3.188,0.48 4.193,1.445 2.54,2.438 5.675,9.188 5.351,12.727 -0.318,3.477 -5.052,4.287 -6.363,7.23 z"
         id="path9970"
         inkscape:connector-curvature="0"
         style="clip-rule:evenodd;fill-rule:evenodd" />
      <path
         d="m 406.66,801.436 c 2.727,-1.277 3.182,1.367 2.893,4.193 -0.243,2.373 -1.289,4.521 -2.604,6.652 -0.846,1.373 -2.68,4.721 -4.482,4.629 -0.65,-0.033 -1.512,-0.619 -1.592,-1.447 -0.139,-1.445 2.393,-3.391 3.183,-4.627 0.903,-1.414 1.983,-3.84 2.169,-5.496 0.151,-1.352 -0.396,-2.488 0.433,-3.904 z"
         id="path9972"
         inkscape:connector-curvature="0"
         style="clip-rule:evenodd;fill-rule:evenodd" />
      <path
         d="m 387.57,809.824 c 1.078,0.092 0.832,2.248 0.289,2.746 -0.949,-0.312 -0.822,-2.09 -0.289,-2.746 z"
         id="path9974"
         inkscape:connector-curvature="0"
         style="clip-rule:evenodd;fill-rule:evenodd" />
      <path
         d="m 385.111,810.836 c 0.965,0.215 1.932,1.125 1.736,2.025 -0.888,0.287 -2.423,-1.187 -1.736,-2.025 z"
         id="path9976"
         inkscape:connector-curvature="0"
         style="clip-rule:evenodd;fill-rule:evenodd" />
      <path
         d="m 390.607,810.98 c -0.08,1.223 -0.861,1.742 -1.879,2.025 -0.445,-1.114 0.991,-2.245 1.879,-2.025 z"
         id="path9978"
         inkscape:connector-curvature="0"
         style="clip-rule:evenodd;fill-rule:evenodd" />
      <path
         d="m 388.582,813.439 c 0.107,0.926 -0.377,1.26 -1.301,1.156 -1.199,-0.923 0.637,-2.447 1.301,-1.156 z"
         id="path9980"
         inkscape:connector-curvature="0"
         style="clip-rule:evenodd;fill-rule:evenodd" />
      <path
         d="m 386.414,813.584 c 0.104,1.123 -2.289,0.852 -2.604,0.289 0.256,-0.934 1.999,-0.81 2.604,-0.289 z"
         id="path9982"
         inkscape:connector-curvature="0"
         style="clip-rule:evenodd;fill-rule:evenodd" />
      <path
         d="m 391.619,813.729 c -0.08,0.908 -2.297,0.717 -2.602,0.145 0.237,-0.925 2.2,-0.897 2.602,-0.145 z"
         id="path9984"
         inkscape:connector-curvature="0"
         style="clip-rule:evenodd;fill-rule:evenodd" />
      <path
         d="m 386.992,814.74 c -0.23,0.994 -1.039,2.115 -2.17,1.736 0.201,-1.025 1.047,-2.107 2.17,-1.736 z"
         id="path9986"
         inkscape:connector-curvature="0"
         style="clip-rule:evenodd;fill-rule:evenodd" />
      <path
         d="m 388.582,814.596 c 1.24,0.109 1.916,0.785 2.025,2.025 -1.275,-0.074 -1.951,-0.75 -2.025,-2.025 z"
         id="path9988"
         inkscape:connector-curvature="0"
         style="clip-rule:evenodd;fill-rule:evenodd" />
      <path
         d="m 387.57,815.029 c 1.078,0.092 0.832,2.248 0.289,2.748 -0.921,-0.287 -0.863,-2.131 -0.289,-2.748 z"
         id="path9990"
         inkscape:connector-curvature="0"
         style="clip-rule:evenodd;fill-rule:evenodd" />
      <path
         d="m 401.309,816.766 c -0.625,0.555 -0.994,1.203 -1.879,1.156 0,0.627 0,1.254 0,1.881 -1.27,0.922 -3.773,2.791 -5.641,1.301 -0.02,-2.623 1.994,-3.213 3.326,-4.482 0.77,0.002 1.08,0.461 1.736,0.578 0.657,-0.614 1.667,-1.673 2.458,-0.434 z"
         id="path9992"
         inkscape:connector-curvature="0"
         style="clip-rule:evenodd;fill-rule:evenodd" />
      <path
         d="m 392.344,816.188 c 0.232,-0.041 0.248,0.137 0.434,0.145 -0.318,1.607 -0.373,4.094 -2.025,3.904 -0.314,-1.655 0.778,-3.051 1.591,-4.049 z"
         id="path9994"
         inkscape:connector-curvature="0"
         style="clip-rule:evenodd;fill-rule:evenodd" />
      <path
         d="m 388.873,816.766 c 1.449,1.273 1.627,4.506 1.301,7.086 0.893,0.553 2.793,0.1 2.893,1.445 -2.025,0 -4.049,0 -6.074,0 0.158,-1.191 1.643,-1.055 2.748,-1.301 0.513,-2.674 -0.188,-5.281 -0.868,-7.23 z"
         id="path9996"
         inkscape:connector-curvature="0"
         style="clip-rule:evenodd;fill-rule:evenodd" />
      <path
         d="m 385.256,818.934 c 1.773,0.012 4.076,0.264 4.051,1.592 -1.401,0.662 -3.553,-0.391 -4.051,-1.592 z"
         id="path9998"
         inkscape:connector-curvature="0"
         style="clip-rule:evenodd;fill-rule:evenodd" />
    </g>
  </g>
</svg>
